<svg id="card2img1" xmlns="http://www.w3.org/2000/svg" width="283.501" height="225.56" viewBox="0 0 283.501 225.56">
  <path id="Path_314" data-name="Path 314" d="M131.547,69.182l-33.725-4.5,6.825-34.563,36.229,7.154Z" transform="translate(-56.3 -17.336)" fill="#2f2e41"/>
  <path id="Path_315" data-name="Path 315" d="M100.9,274.727V132.14a4.691,4.691,0,0,1,4.686-4.686h231.3a4.691,4.691,0,0,1,4.686,4.686V274.727a4.691,4.691,0,0,1-4.686,4.686h-231.3A4.691,4.691,0,0,1,100.9,274.727ZM340.722,132.14a3.837,3.837,0,0,0-3.837-3.837h-231.3a3.838,3.838,0,0,0-3.837,3.837V274.727a3.837,3.837,0,0,0,3.837,3.837H269.992a70.73,70.73,0,0,0,70.731-70.731Z" transform="translate(-58.07 -73.354)" fill="#3f3d56"/>
  <g id="Group_47" data-name="Group 47" transform="translate(252.391 55.956)">
    <path id="Path_316" data-name="Path 316" d="M607.991,151.32l-3.494-1.655a25.657,25.657,0,0,1,3.329,7.608,25.623,25.623,0,0,1,4.709-6.839l-3.692.95c2.275-11.15,10.832-19.154,20.631-19.154l.139-.4C619.377,131.826,610.314,139.719,607.991,151.32Z" transform="translate(-600.299 -131.826)" fill="#3f3d56"/>
    <path id="Path_317" data-name="Path 317" d="M618.376,213.171H596.3a1.7,1.7,0,0,1,0-3.4h22.072a1.7,1.7,0,0,1,0,3.4Z" transform="translate(-594.606 -176.688)" fill="#e7004c"/>
  </g>
  <g id="Group_49" data-name="Group 49" transform="translate(151.202 97.975)">
    <path id="Path_318" data-name="Path 318" d="M415.642,238.034v44.994a7.224,7.224,0,0,1-7.216,7.216H363.432a7.224,7.224,0,0,1-7.216-7.216V238.034a7.224,7.224,0,0,1,7.216-7.216h44.994A7.224,7.224,0,0,1,415.642,238.034Zm-10.007,51.361a9.158,9.158,0,0,0,9.158-9.158V260.344a28.677,28.677,0,0,0-28.677-28.677H363.432a6.367,6.367,0,0,0-6.367,6.367V276.75a12.644,12.644,0,0,0,12.644,12.645Z" transform="translate(-356.216 -230.818)" fill="#3f3d56"/>
    <g id="Group_48" data-name="Group 48" transform="translate(12.718 17.048)">
      <path id="Path_319" data-name="Path 319" d="M419.731,272.309H405.205a.664.664,0,1,1,0-1.328h14.525a.664.664,0,1,1,0,1.328Z" transform="translate(-396.747 -270.981)" fill="#3f3d56"/>
      <path id="Path_320" data-name="Path 320" d="M419.731,305.673H405.205a.664.664,0,1,1,0-1.328h14.525a.664.664,0,1,1,0,1.328Z" transform="translate(-396.747 -290.183)" fill="#3f3d56"/>
      <path id="Path_321" data-name="Path 321" d="M402.731,351.673H388.205a.664.664,0,1,1,0-1.328h14.525a.664.664,0,1,1,0,1.328Z" transform="translate(-386.962 -316.658)" fill="#3f3d56"/>
      <path id="Path_322" data-name="Path 322" d="M416.957,289H386.842a.664.664,0,1,1,0-1.328h30.115a.664.664,0,0,1,0,1.328Z" transform="translate(-386.178 -280.588)" fill="#3f3d56"/>
    </g>
  </g>
  <path id="Path_323" data-name="Path 323" d="M116.124,264.711H66.345c4.173-9.311,6.738-18.177,2.728-25.231l47.052-2.728C113.773,246.275,113.486,255.619,116.124,264.711Z" transform="translate(-38.184 -136.259)" fill="#ffb6b6"/>
  <path id="Path_324" data-name="Path 324" d="M112.945,379.078h-36.6a.691.691,0,0,1-.622-.389l-.223-.46-4.863-9.982a.691.691,0,0,0-1.311.269l-.469,9.713-.009.193a.691.691,0,0,1-.69.656H32.13a.692.692,0,0,1-.69-.647c0-.068-.009-.135-.013-.2-2.3-35.507,5.972-59.574,10.824-70.343l0,0a56.005,56.005,0,0,1,3.29-6.414l.48,0h0l9.691-.17h0l8.583-.144,6.486-.106,2.6-.047h0l1.63-.025,8.1-.14,7.237-.123,5.2-.085h.144l.773,3.332v0l.03.149v0l.132.548,0,.017.263,1.15v.009l.017.064v0l.064.276,0,.013.611,2.644.989,4.3,1.3,5.624,1.643,7.139.832,3.6,1.142,4.954,10.1,43.78h0A.691.691,0,0,1,112.945,379.078Z" transform="translate(-17.86 -173.019)" fill="#2f2e41"/>
  <path id="Path_325" data-name="Path 325" d="M110.119,106.346l-19.81-.691-7.831,10.5-4.12.895a12.642,12.642,0,0,0-9.921,13.339l1.871,43.656.849,5.094,46.691,7.64,10.5-66.068-13.815-4.963-4.413-9.4Z" transform="translate(-39.365 -60.808)" fill="#ee7623"/>
  <circle id="Ellipse_8" data-name="Ellipse 8" cx="17.782" cy="17.782" r="17.782" transform="translate(45.742 8.319)" fill="#ffb6b6"/>
  <g id="Group_50" data-name="Group 50" transform="translate(243.219 149.259)">
    <path id="Path_326" data-name="Path 326" d="M591.329,406.788l-15.416-5.729a4.479,4.479,0,0,1-2.635-5.752l15.145-40.753a4.479,4.479,0,0,1,5.752-2.635l15.416,5.729a4.479,4.479,0,0,1,2.635,5.752c-5.8,16.472-12.116,34.98-15.145,40.753A4.478,4.478,0,0,1,591.329,406.788Z" transform="translate(-572.998 -351.639)" fill="#3f3d56"/>
    <path id="Path_327" data-name="Path 327" d="M653.263,404.956a.189.189,0,0,0-.243.112l-2.109,5.677a.189.189,0,1,0,.355.132l2.109-5.677A.19.19,0,0,0,653.263,404.956Z" transform="translate(-617.832 -382.317)" fill="#3f3d56"/>
    <path id="Path_328" data-name="Path 328" d="M612.745,363.828,597.6,404.58a4.047,4.047,0,0,1-4.954,2.468h0l-.09-.029c-.053-.017-.106-.035-.159-.055l-.537-.246c-.351-.161-.86-.4-1.494-.69l-.6-.281c-.422-.2-.884-.413-1.38-.648l-.611-.289c-1.066-.5-2.259-1.074-3.513-1.683q-.318-.153-.641-.311c-.056-.028-9.2-6.311-9.022-6.786l15.145-40.752a4.048,4.048,0,0,1,5.2-2.385l2.265.842a.738.738,0,0,1,.445.9c-.006.025-.012.05-.017.075a.822.822,0,0,0,.539.9l7.963,2.959a.822.822,0,0,0,1-.331c.013-.022.025-.045.036-.068a.737.737,0,0,1,.923-.389l2.265.842a4.048,4.048,0,0,1,2.384,5.2Z" transform="translate(-573.916 -352.214)" fill="#e7004c"/>
    <path id="Path_329" data-name="Path 329" d="M602.343,373.82a.189.189,0,0,0-.243.111l-.527,1.419a.189.189,0,1,0,.355.132l.528-1.419A.189.189,0,0,0,602.343,373.82Z" transform="translate(-589.437 -364.398)" fill="#3f3d56"/>
    <path id="Path_330" data-name="Path 330" d="M597.945,383.85a.189.189,0,0,0-.243.112l-1.022,2.75a.189.189,0,0,0,.355.132l1.022-2.75A.189.189,0,0,0,597.945,383.85Z" transform="translate(-586.621 -370.17)" fill="#3f3d56"/>
    <path id="Path_331" data-name="Path 331" d="M594.528,393.045a.189.189,0,0,0-.243.111l-1.022,2.75a.189.189,0,0,0,.355.132l1.022-2.75A.189.189,0,0,0,594.528,393.045Z" transform="translate(-584.654 -375.462)" fill="#3f3d56"/>
    <rect id="Rectangle_20" data-name="Rectangle 20" width="0.473" height="3.69" rx="0.086" transform="translate(19.412 1.29) rotate(-69.613)" fill="#e6e6e6"/>
    <circle id="Ellipse_9" data-name="Ellipse 9" cx="0.379" cy="0.379" r="0.379" transform="translate(34.098 6.106)" fill="#e6e6e6"/>
    <circle id="Ellipse_10" data-name="Ellipse 10" cx="0.379" cy="0.379" r="0.379" transform="translate(35.073 6.469)" fill="#e6e6e6"/>
    <circle id="Ellipse_11" data-name="Ellipse 11" cx="0.379" cy="0.379" r="0.379" transform="translate(36.049 6.831)" fill="#e6e6e6"/>
  </g>
  <g id="Group_51" data-name="Group 51" transform="translate(206.761 54.499)">
    <path id="Path_332" data-name="Path 332" d="M504.875,149.617H491.563a3.11,3.11,0,0,1-3.107-3.107V131.5a3.11,3.11,0,0,1,3.107-3.107h13.312a3.11,3.11,0,0,1,3.107,3.107v15.01A3.11,3.11,0,0,1,504.875,149.617Z" transform="translate(-487.883 -128.394)" fill="#fff"/>
    <path id="Path_333" data-name="Path 333" d="M504.1,149.617H490.785a3.11,3.11,0,0,1-3.107-3.107c-.669-5.527-.854-10.675,0-15.01a3.11,3.11,0,0,1,3.107-3.107H504.1A3.11,3.11,0,0,1,507.2,131.5v15.01a3.11,3.11,0,0,1-3.107,3.107Zm-13.312-20.8A2.685,2.685,0,0,0,488.1,131.5v15.01a2.685,2.685,0,0,0,2.682,2.682H504.1a2.685,2.685,0,0,0,2.682-2.682V131.5a2.685,2.685,0,0,0-2.682-2.682Z" transform="translate(-487.106 -128.394)" fill="#3f3d56"/>
    <path id="Path_334" data-name="Path 334" d="M507.952,147.606H496.983a.844.844,0,1,1,0-1.688h10.969a.844.844,0,0,1,0,1.688Z" transform="translate(-492.305 -138.48)" fill="#e7004c"/>
    <path id="Path_335" data-name="Path 335" d="M507.952,158.606H496.983a.844.844,0,1,1,0-1.688h10.969a.844.844,0,0,1,0,1.688Z" transform="translate(-492.305 -144.81)" fill="#e7004c"/>
    <path id="Path_336" data-name="Path 336" d="M507.952,136.606H496.983a.844.844,0,1,1,0-1.688h10.969a.844.844,0,0,1,0,1.688Z" transform="translate(-492.305 -132.149)" fill="#e7004c"/>
  </g>
  <g id="Group_52" data-name="Group 52" transform="translate(56.018 38.832)">
    <path id="Path_337" data-name="Path 337" d="M133.433,102.071a11.9,11.9,0,0,0,3.67,4.249L145.28,124.4l8.492-4.143-9.209-17.9a11.89,11.89,0,0,0-1.459-5.421c-2.226-4.2-6.2-6.45-8.866-5.033s-3.031,5.967-.8,10.163Z" transform="translate(-131.973 -91.485)" fill="#ffb6b6"/>
    <path id="Path_338" data-name="Path 338" d="M159.363,134.359s12.454-6.527,16.319.326c3.3,5.847,5.679,35.1,6.308,43.567a6.689,6.689,0,0,1-1.1,4.2h0a6.7,6.7,0,0,1-10.615.706l-25.237-49.691,11.971-5.689,2.928,7.091-.571-.511Z" transform="translate(-139.491 -112.374)" fill="#ee7623"/>
  </g>
  <path id="Path_339" data-name="Path 339" d="M135.845,244.072a2.369,2.369,0,0,0,.435-1.37V199.154a2.379,2.379,0,0,0-2.38-2.379H68.074a2.379,2.379,0,0,0-2.379,2.379V242.7a2.369,2.369,0,0,0,.434,1.37H57.908v2.283a774.553,774.553,0,0,0,86.159,0v-2.283Z" transform="translate(-33.328 -113.25)" fill="#3f3d56"/>
  <g id="Group_53" data-name="Group 53" transform="translate(156.249 204.336)">
    <path id="Path_340" data-name="Path 340" d="M385.875,502.617H372.563a3.11,3.11,0,0,1-3.107-3.107V484.5a3.11,3.11,0,0,1,3.107-3.107h13.312a3.11,3.11,0,0,1,3.107,3.107v15.01A3.11,3.11,0,0,1,385.875,502.617Z" transform="translate(-368.883 -481.394)" fill="#fff"/>
    <path id="Path_341" data-name="Path 341" d="M385.1,502.617H371.786a3.11,3.11,0,0,1-3.107-3.107c-.669-5.527-.854-10.675,0-15.01a3.11,3.11,0,0,1,3.107-3.107H385.1A3.11,3.11,0,0,1,388.2,484.5v15.01A3.11,3.11,0,0,1,385.1,502.617Zm-13.312-20.8A2.685,2.685,0,0,0,369.1,484.5v15.01a2.685,2.685,0,0,0,2.682,2.682H385.1a2.685,2.685,0,0,0,2.682-2.682V484.5a2.685,2.685,0,0,0-2.682-2.682Z" transform="translate(-368.106 -481.394)" fill="#3f3d56"/>
    <path id="Path_342" data-name="Path 342" d="M388.952,500.606H377.983a.844.844,0,1,1,0-1.688h10.969a.844.844,0,1,1,0,1.688Z" transform="translate(-373.305 -491.48)" fill="#e7004c"/>
    <path id="Path_343" data-name="Path 343" d="M388.952,511.606H377.983a.844.844,0,1,1,0-1.688h10.969a.844.844,0,0,1,0,1.688Z" transform="translate(-373.305 -497.811)" fill="#e7004c"/>
    <path id="Path_344" data-name="Path 344" d="M388.952,489.606H377.983a.844.844,0,0,1,0-1.688h10.969a.844.844,0,0,1,0,1.688Z" transform="translate(-373.305 -485.149)" fill="#e7004c"/>
  </g>
  <g id="Group_54" data-name="Group 54" transform="translate(0 56.144)">
    <path id="Path_345" data-name="Path 345" d="M99.895,294.628a11.889,11.889,0,0,0-5.467,1.28l-19.815-1.147-.27,9.445,20.129.146a11.892,11.892,0,0,0,5.48,1.222c4.75-.025,8.588-2.5,8.572-5.519s-3.88-5.453-8.629-5.428Z" transform="translate(-42.787 -225.712)" fill="#ffb6b6"/>
    <path id="Path_346" data-name="Path 346" d="M38.07,132.4s-16.844-1.877-21.135,8.573C13.658,148.955,5.142,180.067.364,197.879A10.512,10.512,0,0,0,10.1,211.106l29.753,1.178,1.721-13.162L20.331,195.73l11.885-35.655L38.07,132.4Z" transform="translate(0 -132.269)" fill="#ee7623"/>
  </g>
  <path id="Path_347" data-name="Path 347" d="M119.28,12.372c.855-4.33-4.393-6.012-8.323-8.022L107.62,1.529A13.945,13.945,0,0,0,96.355.9L84.881,4.714c-5.208,1.962-7.025,6.633-10.027,11.32L69.823,22.75C66.869,27.364,67.752,34.567,68.445,40l.29,2.277-2.764,6.609,21.243,3.793,4.282-10.2-2.672-4.848a4.174,4.174,0,0,1,.911-5.16h0c5.323-4.646,6.343-12.619,6.343-12.619l4.5,3.968a27.292,27.292,0,0,0,9.061,1.908,16.254,16.254,0,0,0,8.254-1.95l.432,6.575c-1.269,7.773-3.164,9.482-11.7,15.429L116.9,56.029l.481-4.172c1.145-9.923,6.094-16.83,7.433-24.814a15.679,15.679,0,0,0-5.533-14.671Z" transform="translate(-37.968 0)" fill="#2f2e41"/>
</svg>
