<svg xmlns="http://www.w3.org/2000/svg" width="45" height="44.997" viewBox="0 0 45 44.997">
  <g id="twitter" transform="translate(-1063 -5173)">
    <g id="Group_7" data-name="Group 7" transform="translate(1063 5173)">
      <path id="Path_15" data-name="Path 15" d="M22.5,0A22.5,22.5,0,1,0,45,22.5,22.525,22.525,0,0,0,22.5,0ZM32.537,17.349c.01.223.015.448.015.672A14.731,14.731,0,0,1,9.879,30.428a10.457,10.457,0,0,0,7.667-2.144,5.184,5.184,0,0,1-4.838-3.6,5.2,5.2,0,0,0,2.338-.087,5.179,5.179,0,0,1-4.154-5.078c0-.022,0-.044,0-.065a5.158,5.158,0,0,0,2.345.647,5.186,5.186,0,0,1-1.6-6.914A14.7,14.7,0,0,0,22.31,18.6a5.182,5.182,0,0,1,8.825-4.724,10.337,10.337,0,0,0,3.29-1.257,5.2,5.2,0,0,1-2.28,2.866,10.3,10.3,0,0,0,2.975-.815A10.417,10.417,0,0,1,32.537,17.349Z" fill="#fff"/>
    </g>
  </g>
</svg>
